# xmcd CD database file
#
# Track frame offsets:
#	150
#	13218
#	27101
#	40818
#	51562
#	66683
#	79623
#	93639
#	106514
#	119849
#	133441
#	146079
#	157913
#	171833
#	185316
#	198682
#	210328
#	221146
#	233681
#	246052
#	259823
#	273514
#	285585
#	296220
#	307198
#	319170
#	333076
#
# Disc length: 4631 seconds
#
# Revision: 0
# Processed by: cddbd v1.5.2PL0 Copyright (c) Steve Scherf et al.
# Submitted via: CDex 1.70beta2
#
DISCID=a912151b
DTITLE=BIG BILL BROONZY - ROCKIN IN CHICAGO 1949-53
DYEAR=1900
DGENRE=Blues
TTITLE0=YOU'VE MISTREATIN' ME
TTITLE1=(I'M A) WONDERIN' MAN
TTITLE2=I LOVE MY WHISKEY
TTITLE3=I STAY BLUE ALL THE TIME
TTITLE4=FIVE FEET SEVEN (AKA WHO'S BEEN FOOLIN' YOU)
TTITLE5=KEEP YOU HANDS OFF HER
TTITLE6=MINDIN' MY OWN BUSINESS
TTITLE7=HEY HEY
TTITLE8=STUMP BLUES
TTITLE9=GET BACK (AKA BLACK, BROWN AND WHITE)
TTITLE10=WILLIE MAE BLUES
TTITLE11=MOPPER'S BLUES (AKA MOPPIN' BLUES)
TTITLE12=HOLLERIN' BLUES (AKA HOLLERIN' AND CRYIN' THE BLUES)
TTITLE13=LEAVIN' DAY
TTITLE14=SOUTHBOUND TRAIN
TTITLE15=YOU CHANGED
TTITLE16=JACQUELINE
TTITLE17=LONESOME
TTITLE18=LITTLE CITY WOMAN
TTITLE19=ROMANCE WITHOUT FINANCE
TTITLE20=BY MYSELF (AKA ALL BY MYSELF)
TTITLE21=DIGGIN' MY POTATOES
TTITLE22=BRIGHT EYES
TTITLE23=MINDIN' MY OWN BUSINESS
TTITLE24=NEVER NEVER
TTITLE25=HORSE SHOE OVER MY DOOR
TTITLE26=SHIRT TAIL
EXTD=
EXTT0=
EXTT1=
EXTT2=
EXTT3=
EXTT4=
EXTT5=
EXTT6=
EXTT7=
EXTT8=
EXTT9=
EXTT10=
EXTT11=
EXTT12=
EXTT13=
EXTT14=
EXTT15=
EXTT16=
EXTT17=
EXTT18=
EXTT19=
EXTT20=
EXTT21=
EXTT22=
EXTT23=
EXTT24=
EXTT25=
EXTT26=
PLAYORDER=
